<svg xmlns="http://www.w3.org/2000/svg" viewBox="0 0 100 100" preserveAspectRatio="xMidYMid" width="397" height="397" style="shape-rendering: auto; display: block; background: rgba(255, 255, 255, 0);" xmlns:xlink="http://www.w3.org/1999/xlink"><g><g transform="rotate(0 50 50)">
  <rect fill="#f15a24" height="7" width="7" ry="3.5" rx="3.5" y="27.5" x="46.5">
    <animate repeatCount="indefinite" begin="-0.6690997566909975s" dur="0.7299270072992701s" keyTimes="0;1" values="1;0" attributeName="opacity"></animate>
  </rect>
</g><g transform="rotate(30 50 50)">
  <rect fill="#f15a24" height="7" width="7" ry="3.5" rx="3.5" y="27.5" x="46.5">
    <animate repeatCount="indefinite" begin="-0.608272506082725s" dur="0.7299270072992701s" keyTimes="0;1" values="1;0" attributeName="opacity"></animate>
  </rect>
</g><g transform="rotate(60 50 50)">
  <rect fill="#f15a24" height="7" width="7" ry="3.5" rx="3.5" y="27.5" x="46.5">
    <animate repeatCount="indefinite" begin="-0.5474452554744526s" dur="0.7299270072992701s" keyTimes="0;1" values="1;0" attributeName="opacity"></animate>
  </rect>
</g><g transform="rotate(90 50 50)">
  <rect fill="#f15a24" height="7" width="7" ry="3.5" rx="3.5" y="27.5" x="46.5">
    <animate repeatCount="indefinite" begin="-0.48661800486618s" dur="0.7299270072992701s" keyTimes="0;1" values="1;0" attributeName="opacity"></animate>
  </rect>
</g><g transform="rotate(120 50 50)">
  <rect fill="#f15a24" height="7" width="7" ry="3.5" rx="3.5" y="27.5" x="46.5">
    <animate repeatCount="indefinite" begin="-0.4257907542579075s" dur="0.7299270072992701s" keyTimes="0;1" values="1;0" attributeName="opacity"></animate>
  </rect>
</g><g transform="rotate(150 50 50)">
  <rect fill="#f15a24" height="7" width="7" ry="3.5" rx="3.5" y="27.5" x="46.5">
    <animate repeatCount="indefinite" begin="-0.36496350364963503s" dur="0.7299270072992701s" keyTimes="0;1" values="1;0" attributeName="opacity"></animate>
  </rect>
</g><g transform="rotate(180 50 50)">
  <rect fill="#f15a24" height="7" width="7" ry="3.5" rx="3.5" y="27.5" x="46.5">
    <animate repeatCount="indefinite" begin="-0.3041362530413625s" dur="0.7299270072992701s" keyTimes="0;1" values="1;0" attributeName="opacity"></animate>
  </rect>
</g><g transform="rotate(210 50 50)">
  <rect fill="#f15a24" height="7" width="7" ry="3.5" rx="3.5" y="27.5" x="46.5">
    <animate repeatCount="indefinite" begin="-0.24330900243309s" dur="0.7299270072992701s" keyTimes="0;1" values="1;0" attributeName="opacity"></animate>
  </rect>
</g><g transform="rotate(240 50 50)">
  <rect fill="#f15a24" height="7" width="7" ry="3.5" rx="3.5" y="27.5" x="46.5">
    <animate repeatCount="indefinite" begin="-0.18248175182481752s" dur="0.7299270072992701s" keyTimes="0;1" values="1;0" attributeName="opacity"></animate>
  </rect>
</g><g transform="rotate(270 50 50)">
  <rect fill="#f15a24" height="7" width="7" ry="3.5" rx="3.5" y="27.5" x="46.5">
    <animate repeatCount="indefinite" begin="-0.121654501216545s" dur="0.7299270072992701s" keyTimes="0;1" values="1;0" attributeName="opacity"></animate>
  </rect>
</g><g transform="rotate(300 50 50)">
  <rect fill="#f15a24" height="7" width="7" ry="3.5" rx="3.5" y="27.5" x="46.5">
    <animate repeatCount="indefinite" begin="-0.0608272506082725s" dur="0.7299270072992701s" keyTimes="0;1" values="1;0" attributeName="opacity"></animate>
  </rect>
</g><g transform="rotate(330 50 50)">
  <rect fill="#f15a24" height="7" width="7" ry="3.5" rx="3.5" y="27.5" x="46.5">
    <animate repeatCount="indefinite" begin="0s" dur="0.7299270072992701s" keyTimes="0;1" values="1;0" attributeName="opacity"></animate>
  </rect>
</g><g></g></g><!-- [ldio] generated by https://loading.io --></svg>