<svg width="25" height="24" viewBox="0 0 25 24" fill="none" xmlns="http://www.w3.org/2000/svg">
<path d="M12 3C13.125 3 14.1917 3.24857 15.1494 3.69238L14.1533 4.0625L13.7051 4.22754C13.1616 4.08014 12.5902 4 12 4C8.41015 4 5.5 6.91015 5.5 10.5C5.5 14.0899 8.41015 17 12 17C15.5899 17 18.5 14.0899 18.5 10.5C18.5 9.90941 18.4191 9.33781 18.2715 8.79395L18.4375 8.34668L18.8057 7.34863C19.2502 8.30696 19.5 9.3741 19.5 10.5C19.5 14.6421 16.1421 18 12 18C7.85786 18 4.5 14.6421 4.5 10.5C4.5 6.35786 7.85786 3 12 3ZM16.2783 4.34082C17.0111 4.8508 17.6481 5.48799 18.1582 6.2207L17.7188 7.40723C17.4665 6.94182 17.1585 6.51118 16.8047 6.12305L16.6895 5.81055L16.376 5.69434C15.9878 5.34065 15.5572 5.0324 15.0918 4.78027L16.2783 4.34082Z" fill="#F15A24"/>
<path d="M17 16L22 21" stroke="#F15A24"/>
<path d="M17.5 2L18.3103 4.18973L20.5 5L18.3103 5.81027L17.5 8L16.6897 5.81027L14.5 5L16.6897 4.18973L17.5 2Z" fill="#F15A24"/>
</svg>
